<svg width="800" height="650" viewBox="0 0 800 650" fill="none" xmlns="http://www.w3.org/2000/svg">
<rect width="800" height="650" fill="white"/>
<path fill-rule="evenodd" clip-rule="evenodd" d="M578.779 70.7129C572.023 72.8551 567.344 78.5689 566.268 85.9917L565.768 89.4331L563.847 88.46C547.016 79.9304 526.906 79.4262 515.09 87.2374C507.002 92.5842 497.262 107.678 497.262 114.866C497.262 115.99 496.93 115.845 493.273 113.128C468.056 94.3911 442.43 95.4438 439.704 115.328C439.397 117.568 439.376 117.581 437.652 116.536C431.927 113.067 421.048 108.345 415.685 107.001C399.249 102.882 384.935 111.266 383.984 125.569L383.729 129.409L380.359 128.4C361.758 122.825 340.558 123.077 331.757 128.979C328.427 131.212 328.736 131.253 327.332 128.39C322.642 118.827 308.111 109.334 300.704 110.993C283.342 114.884 296.549 143.23 316.536 144.975L319.274 145.214L319.302 150.322C319.341 157.317 320.76 162.213 323.968 166.423C325.244 168.097 325.235 168.134 323.494 168.461C313.849 170.27 304.613 181.131 305.782 189.288C309.565 215.679 354.358 235.663 387.467 225.731C391.616 224.486 392.555 224.327 392.979 224.796C393.261 225.107 396.59 228.849 400.378 233.11C428.751 265.034 460.013 274.082 469.44 253.099L470.417 250.925L474.255 254.284C492.818 270.527 513.86 270.437 522.178 254.081L523.427 251.626L524.773 252.636C535.566 260.734 551.788 267.284 561.026 267.274C577.117 267.257 585.527 252.064 578.384 235.913L577.311 233.487L578.466 233.786C606.365 241.021 614.932 217.033 592.883 193.423C591.205 191.626 589.904 190.091 589.993 190.011C590.081 189.931 591.521 189.296 593.193 188.598L596.232 187.331L597.962 189.573C604.014 197.418 621.379 211.546 630.838 216.321C647.571 224.767 665.416 217.75 666.505 202.297C666.632 200.501 666.832 199.032 666.951 199.032C667.069 199.032 669.193 199.687 671.67 200.488C713.969 214.162 723.816 172.198 683.337 150.769C681.76 149.934 680.536 149.125 680.617 148.971C687.534 135.758 680.913 120.14 663.291 108.098C651.879 100.298 639.969 97.9546 625.71 100.703C624.727 100.893 624.526 100.698 623.726 98.7748C616.669 81.792 592.138 66.477 578.779 70.7129ZM581.307 81.9007C577.381 83.5357 576.371 88.7919 578.608 95.946C581.754 106.008 576.647 108.956 566.545 102.91C538.91 86.3713 515.553 91.0209 509.089 114.348C504.917 129.4 519.177 147.968 536.235 149.697C543.825 150.466 547.066 154.593 543.871 159.421C538.972 166.824 558.792 181.492 573.724 181.514C580.984 181.525 590.543 178.466 592.05 175.65C594.229 171.579 600.167 171.354 602.15 175.267C608.476 187.757 632.356 207.218 643.291 208.796C654.23 210.374 657.549 204.38 652.301 192.525C647.785 182.324 652.382 177.407 661.226 182.977C675.466 191.945 688.967 194.288 696.043 189.021C704.977 182.37 684.183 159.165 667.433 157.093C659.718 156.139 659.169 147.15 666.738 145.73C679.914 143.258 667.216 120.173 648.768 113.059C642.218 110.533 628.755 110.546 623.162 113.084C618.267 115.305 614.243 112.777 614.105 107.394C613.811 95.8445 590.791 77.9521 581.307 81.9007ZM455.556 111.261C453.096 112.071 451.735 113.889 450.943 117.424C450.421 119.755 450.528 120.101 454.247 128.115C457.506 135.138 457.499 137.618 454.212 139.622C451.098 141.52 449.229 140.87 443.952 136.052C431.6 124.773 417.612 117.586 408.163 117.663C393.224 117.784 391.086 125.813 402.751 137.991C410.462 146.04 405.156 154.823 396.533 148.284C386.28 140.511 367.248 135.503 349.474 135.902L342.821 136.052L339.658 137.615C323.797 145.455 328.065 160.547 349.202 171.365C360.196 176.993 356.679 187.243 345.41 182.415C328.627 175.223 313.015 180.857 318.422 192.153C327.256 210.608 359.911 221.649 384.993 214.66C397.02 211.309 397.785 211.357 400.549 215.627C421.648 248.231 463.427 265.413 459.782 239.988C458.97 234.32 460.707 231.681 465.25 231.681H467.714L475.011 239.098C487.322 251.612 495.539 256.425 502.224 255.038C509.894 253.445 512.795 250.195 513.481 242.423C514.092 235.496 520.992 232.383 524.356 237.518C527.903 242.931 548.949 254.262 558.569 255.937C573.776 258.585 572.834 239.35 557.06 225.13C552.304 220.843 551.424 218.624 553.273 215.59C555.685 211.635 557.794 211.79 567.45 216.635C584.981 225.43 592.758 226.361 593.986 219.812C595.059 214.094 587.635 202.082 579.958 197.116C578.752 196.336 577.481 195.146 577.132 194.471C576.502 193.252 576.466 193.243 571.951 193.045C554.3 192.275 532.617 176.471 531.443 163.52L531.175 160.569L528.647 159.874C519.413 157.335 506.014 146.973 502.239 139.451C497.211 129.432 479.853 115.555 468.755 112.683C463.625 111.355 457.329 110.677 455.556 111.261ZM486.763 152.594C482.953 154.695 482.902 157.726 486.572 164.061C494.203 177.234 492.973 180.936 482.651 175.859C477.138 173.148 470.622 166.474 467.149 159.981C463.395 152.96 453.256 157.851 456.772 164.987C467.231 186.217 493.242 196.64 501.257 182.813C506.811 173.233 494.789 148.167 486.763 152.594ZM92.7567 257.163C84.9257 261.412 86.7776 282.85 95.8674 293.177L97.5277 295.063L95.4293 297.656C80.2301 316.44 83.4849 338.369 104.62 359.575C117.577 372.576 127.475 378.056 144.201 381.487C148.738 382.418 154.535 383.73 157.084 384.404C166.85 386.987 178.765 387.792 207.055 387.783C222.906 387.778 224.064 387.688 245.13 384.796C246.752 384.573 251.167 383.704 254.942 382.865C258.717 382.025 261.897 381.43 262.008 381.541C262.472 382.005 263.475 387.971 264.081 393.871C265.457 407.269 265.505 407.583 266.427 409.075C272.434 418.793 308.72 419.49 328.296 410.262C348.212 400.875 356.258 388.681 357.436 366.103C357.667 361.681 357.964 356.073 358.097 353.64C358.419 347.734 356.915 338.416 354.272 329.943C353.532 327.569 353.393 327.608 356.674 329.268C358.116 329.997 362.044 331.857 365.404 333.401C372.153 336.503 380.871 341.58 385.414 345.054C393.015 350.865 395.433 352.813 398.724 355.774C416.431 371.707 428.976 374.072 451.554 365.731C455.03 364.448 460.622 362.576 463.982 361.573L470.09 359.748H477.463C491.609 359.748 502.389 363.771 521.506 376.182C552.351 396.209 563.194 396.872 597.315 380.818C617.379 371.378 630.007 371.758 651.347 382.445C670.748 392.161 686.367 391.875 700.949 381.537C708.355 376.285 714.146 367.493 713.226 362.894C713.091 362.217 713.175 360.606 713.414 359.313C720.299 322.071 677.93 284.874 652.916 306.199C645.066 312.892 644.102 313.621 640.949 315.257C633.14 319.309 626.637 318.456 613.721 311.689C595.372 302.076 585.613 302.584 564.908 314.229C542.619 326.764 536.434 327.272 527.732 317.281C507.591 294.155 486.531 288.994 459.558 300.576C446.825 306.043 439.205 306.581 430.054 302.659C425.489 300.702 409.827 288.74 397.129 277.511C386.352 267.981 382.591 265.61 372.987 262.288C355.818 256.35 344.264 255.693 332.544 259.99C326.109 262.35 324.443 263.182 322.816 264.85L321.28 266.424L318.803 265.199C308.998 260.352 287.325 257.398 277.753 259.604C267.575 261.949 256.132 266.839 237.314 276.883C232.119 279.656 220.224 283.133 213.956 283.712C205.665 284.477 196.593 284.976 191.207 284.962C183.839 284.945 153.188 283.25 149.501 282.656C143.95 281.763 122.469 282.647 117.8 283.961C116.902 284.214 116.851 284.108 116.845 281.967C116.797 267.307 102.049 252.119 92.7567 257.163ZM281.149 270.674C273.214 272.076 258.34 278.34 244.287 286.197C237.261 290.126 223.393 294.31 214.875 295.072C197.41 296.633 182.977 296.571 160.454 294.839C127.373 292.294 119.019 293.375 107.733 301.66C104.284 304.192 103.202 305.497 101.135 309.617C96.6303 318.593 96.3363 321.958 99.2928 330.68C103.337 342.61 114.782 355.52 128.43 363.545C135.359 367.619 136.656 368.075 148.237 370.514C152.639 371.442 157.663 372.599 159.401 373.086C167.305 375.302 171.513 375.736 190.996 376.344C206.597 376.831 223.082 376.352 231.649 375.16C235.125 374.677 239.58 374.075 241.549 373.824C243.519 373.572 249.301 372.399 254.398 371.217C268.861 367.862 273.566 368.906 273.566 375.472C273.566 376.144 274.018 378.947 274.571 381.702C275.505 386.353 276.153 391.667 276.759 399.657L277.007 402.915L278.551 403.322C291.062 406.619 303.438 406.351 317.378 402.482C327.691 399.62 338.071 391.931 342.101 384.17C345.647 377.342 345.535 378.059 346.729 354.482C347.088 347.389 346.153 341.619 342.939 331.102C341.75 327.212 338.951 319.021 338.773 318.911C338.707 318.87 337.35 318.034 335.759 317.053C318.712 306.554 311.397 292.894 314.253 276.894L314.53 275.345L310.372 274.079C299.618 270.803 288.046 269.455 281.149 270.674ZM281.809 295.06C278.937 296.954 278.751 299.582 281.152 304.357C283.443 308.913 284.914 313.601 285.231 317.354L285.495 320.478L283.849 320.186C277.673 319.09 269.15 310.44 267.208 303.298C265.789 298.078 259.362 296.737 256.698 301.106C252.391 308.17 266.475 326.873 279.001 330.723C295.919 335.922 302.294 322.312 292.635 301.612C289.34 294.552 285.816 292.419 281.809 295.06ZM457.674 396.004C449.033 397.877 435.189 407.801 431.122 415.038L429.648 417.661L426.488 417.427C424.751 417.298 420.82 416.809 417.753 416.34C405.888 414.524 394.41 415.629 387.795 419.222C384.123 421.218 362.055 435.579 356.136 439.826C336.198 454.131 321.384 459.263 288.762 463.168C282.87 463.873 275.856 464.841 273.175 465.319C270.494 465.797 267.731 466.277 267.036 466.385C265.841 466.572 265.648 466.385 263.5 462.934C251.546 443.736 226.508 434.957 223.383 448.868C221.399 457.699 234.73 473.155 247.892 477.284L250.232 478.018L248.616 481.104C241.796 494.117 239.794 513.112 243.654 528.182C249.614 551.457 260.869 562.779 289.996 574.8C294.05 576.473 298.882 578.502 300.732 579.309C306.396 581.779 310.295 581.19 312.062 577.599C313.366 574.947 311.191 570.596 308.56 570.596C308.148 570.596 304.987 569.397 301.536 567.932C298.085 566.466 293.338 564.463 290.986 563.48C272.258 555.65 260.798 545.038 256.362 531.417C251.968 517.928 251.896 506.174 256.126 492.96C260.254 480.065 264.545 477.411 285.151 475.007C294.596 473.905 300.134 473.178 303.055 472.658C304.793 472.348 308.49 471.691 311.27 471.199C317.179 470.151 325.993 467.903 331.026 466.159C338.4 463.604 354.141 454.912 362.039 449.034C364.403 447.274 367.692 444.971 369.346 443.915C373.637 441.177 380.036 437.006 385.431 433.432C395.741 426.6 402.463 425.287 415.478 427.56C417.247 427.868 420.211 428.25 422.065 428.407C423.919 428.565 425.741 428.778 426.115 428.881C426.696 429.041 426.83 430.132 427.029 436.325C427.542 452.25 431.201 462.634 443.911 484.235C460.831 512.992 497.985 539.236 533.663 547.633C553.16 552.222 557.616 552.414 559.751 548.76C562.059 544.811 558.413 538.408 554.555 539.633C553.809 539.869 545.445 538.294 536.862 536.3C519.08 532.168 493.204 519.701 482.307 510.016C462.205 492.147 458.133 487.091 446.609 465.699C436.551 447.026 435.14 425.845 443.38 417.251C449.014 411.375 462.256 405.131 466.176 406.503C466.475 406.607 469.741 406.999 473.435 407.372C481.409 408.18 482.127 408.475 491.154 414.648C500.258 420.875 501.019 421.357 504.845 423.324C532.836 437.711 573.809 447.8 584.691 442.987C592.196 439.667 587.206 429.879 579.411 432.629C569.362 436.174 519.314 420.384 501.796 408.142C490.126 399.986 485.885 397.679 481.043 396.853C472.042 395.319 462.445 394.97 457.674 396.004ZM516.641 443.247C511.106 445.26 512.028 451.784 518.292 454.939C536.266 463.991 558.313 470.334 572.312 470.482L578.081 470.543L579.385 469.3C581.533 467.249 581.856 464.48 580.287 461.549C579.445 459.977 577.778 459.509 572.039 459.236C559.125 458.623 540.291 453.052 524.214 445.092C520.153 443.081 518.322 442.635 516.641 443.247ZM385.11 454.41C381.859 456.294 381.322 460.664 383.997 463.461C387.634 467.264 401.741 475.346 406.474 476.339C413.669 477.848 417.027 467.49 410.045 465.326C405.771 464.002 404.572 463.486 400.976 461.429C398.905 460.243 395.705 458.141 393.865 456.758C389.04 453.13 387.863 452.814 385.11 454.41ZM510.204 466.447C507.445 468.156 506.803 472.108 508.804 475.076C513.556 482.128 559.765 499.302 568.615 497.306C576.598 495.506 574.492 485.443 566.16 485.577C557.107 485.724 528.211 474.931 517.12 467.261C514.548 465.482 512.205 465.207 510.204 466.447ZM498.702 488.856C494.312 490.632 494.469 496.347 499.02 500.439C509.563 509.918 533.647 520.838 550.615 523.831C553.13 524.275 556.894 524.946 558.979 525.323C564.633 526.345 567.345 525.119 568.421 521.053C569.395 517.371 565.219 512.291 562.566 513.931C562.045 514.253 547.426 511.423 543.036 510.15C532.189 507.004 515.63 498.692 507.055 492.089C505.808 491.129 504.205 489.917 503.491 489.395C502.167 488.428 500.284 488.216 498.702 488.856ZM426.439 501.036C421.613 505.862 427.85 513.777 451.344 532.642C481.185 556.603 500.773 564.734 500.773 553.159C500.773 549.498 499.887 548.767 490.733 544.882C475.947 538.608 448.24 517.318 434.693 501.822C431.856 498.576 429.156 498.319 426.439 501.036ZM393.336 506.544C389.993 508.582 389.426 512.524 392.062 515.409C393.534 517.02 400.971 524.076 405.214 527.889C407.299 529.762 411.198 533.266 413.878 535.674C424.224 544.974 437.392 555.264 449.245 563.312C454.291 566.738 459.205 565.262 459.642 560.189C459.885 557.363 458.994 556.165 454.256 552.946C445.089 546.718 429.455 534.563 423.117 528.738C422.074 527.779 418.282 524.353 414.691 521.124C411.101 517.896 406.164 513.309 403.719 510.931C398.129 505.49 396.318 504.725 393.336 506.544ZM354.923 511.495C348.969 514.429 350.498 517.898 362.827 529.422C383.089 548.359 395.259 557.718 414.265 568.978C421.045 572.995 427.293 568.42 423.486 562.226C423.167 561.708 418.305 558.404 412.68 554.882C396.661 544.854 383.97 534.543 365.825 516.814C359.436 510.572 358.11 509.925 354.923 511.495ZM320.453 518.762C317.351 520.654 316.957 524.384 319.56 527.214C321.183 528.979 327.43 534.38 333.147 538.961C336.113 541.337 340.883 545.245 343.747 547.645C354.589 556.728 372.203 569.198 378.674 572.371C389.04 577.455 393.419 568.202 383.267 562.666C375.783 558.586 358.37 545.948 348.342 537.321C346.025 535.327 342.284 532.223 340.029 530.421C337.774 528.62 334.114 525.5 331.896 523.489C325.258 517.472 323.655 516.81 320.453 518.762ZM285.647 526.145C276.447 530.944 295.165 548.759 331.28 569.579C346.748 578.496 347.711 578.868 350.968 577.184C355.305 574.941 354.316 570.236 348.9 567.35C334.71 559.789 317.016 548.579 309.967 542.684C299.47 533.906 297.654 532.312 295.283 529.8C291.469 525.759 288.527 524.643 285.647 526.145Z" fill="#5794E5"/>
</svg>
